<?xml version="1.0" encoding="UTF-8"?>
<svg id="Layer_2" data-name="Layer 2" xmlns="http://www.w3.org/2000/svg" viewBox="0 0 2676.48 1960">
  <defs>
    <style>
      .cls-1 {
        stroke-width: 30px;
      }

      .cls-1, .cls-2, .cls-3 {
        fill: none;
        stroke: #000;
        stroke-miterlimit: 10;
      }

      .cls-2 {
        stroke-width: 30.97px;
      }

      .cls-3 {
        stroke-width: 30.97px;
      }
    </style>
  </defs>
  <g id="Layer_1-2" data-name="Layer 1">
    <path class="cls-1" d="M2085.48,195c0,99.41-80.59,180.01-180,180-126-.01-189-180-279-180,90,0,153-180.01,279-180,99.41.01,180,80.59,180,180Z"/>
  </g>
  <g id="Layer_3" data-name="Layer 3">
    <line class="cls-1" x1="474.48" y1="195" x2="1050.48" y2="195"/>
    <path class="cls-3" d="M186.48,483c0-99-171-144-171-288C15.48,100.56,92.04,24,186.48,24c144,0,189,171,288,171"/>
    <path class="cls-1" d="M2661.48,1311c0,99.41-80.59,180.01-180,180-126-.01-189-180-279-180,90,0,153-180.01,279-180,99.41.01,180,80.59,180,180Z"/>
    <line class="cls-1" x1="186.48" y1="1023" x2="186.48" y2="1599"/>
    <path class="cls-1" d="M1050.48,1887c144,0,171-90,288-90s144,90,288,90"/>
    <path class="cls-1" d="M474.48,1887c108,0,157.5-130.5,288,0s207,0,288,0"/>
    <path class="cls-2" d="M474.48,1887h-128.9c-87.87,0-159.1-71.23-159.1-159.1v-128.9"/>
    <path class="cls-1" d="M186.48,483c0,72,130.5,157.5,0,288s0,252,0,288"/>
    <path class="cls-2" d="M1914.48,1599v128.9c0,87.87-71.23,159.1-159.1,159.1h-128.9"/>
    <path class="cls-3" d="M1914.48,1599c0-99-171-144-171-288,0-94.44,76.56-171,171-171,144,0,189,171,288,171"/>
    <path class="cls-1" d="M1050.48,195c144,0,171-90,288-90s144,90,288,90"/>
  </g>
</svg>