<?xml version="1.0" encoding="UTF-8"?>
<svg id="Layer_2" data-name="Layer 2" xmlns="http://www.w3.org/2000/svg" viewBox="0 0 454.95 916.49">
  <defs>
    <style>
      .cls-1 {
        fill: #65c8d0;
        stroke-width: 11.8px;
      }

      .cls-1, .cls-2 {
        stroke: #008634;
        stroke-miterlimit: 10;
      }

      .cls-2 {
        fill: #39b54a;
        stroke-width: 1.32px;
      }
    </style>
  </defs>
  <g id="Layer_1-2" data-name="Layer 1">
    <g>
      <path class="cls-1" d="M133.45,5.9c77.32.16,128.89,58.95,153,126,25.42,70.67,19.62,244.44,99,315,81,72,93.01,323.33-13.21,406.96-106.22,83.63-310.37,91.43-320.68-91.63-10.31-183.06,81.59-236.31,82.34-332.48.75-96.18-144.45-189.85-126.45-288.85C23.86,50.6,69.75,5.77,133.45,5.9Z"/>
      <path class="cls-2" d="M305.73,735.28c13.17,21.49,12.18,48.49-7.62,64.08-19.8,15.59-46.28,10.22-64.08-7.62-23.98-24.04-8-87.13,29.43-38.61.46.6,1.64-.21,1.25-.85-29.99-49.46,23.28-45.95,41.02-17Z"/>
    </g>
  </g>
</svg>