<?xml version="1.0" encoding="UTF-8"?>
<svg xmlns="http://www.w3.org/2000/svg" xmlns:xlink="http://www.w3.org/1999/xlink" version="1.1" viewBox="0 0 3670.6 3094.6">
  <defs>
    <style>
      .cls-1 {
        fill: none;
        stroke: #008634;
        stroke-linecap: round;
        stroke-linejoin: round;
        stroke-width: 10px;
      }

      .cls-2 {
        fill: #008634;
      }

      .cls-3 {
        fill: #49cd6d;
      }
    </style>
  </defs>
  <!-- Generator: Adobe Illustrator 28.7.1, SVG Export Plug-In . SVG Version: 1.2.0 Build 142)  -->
  <g>
    <g id="Layer_2">
      <g id="Layer_1-2">
        <g>
          <g>
            <rect class="cls-3" x="57.9" y="57.9" width="3281.2" height="2750.8" rx="62.6" ry="62.6"/>
            <path class="cls-2" d="M3276.6,107.3c7.3,0,13.2,5.9,13.2,13.2v2625.7c0,7.3-5.9,13.2-13.2,13.2H120.5c-7.3,0-13.2-5.9-13.2-13.2V120.5c0-7.3,5.9-13.2,13.2-13.2h3156.1M3276.6,8.5H120.5c-15.1,0-29.7,3-43.6,8.8-13.3,5.6-25.3,13.7-35.6,24-10.2,10.2-18.3,22.2-24,35.6-5.9,13.9-8.8,28.5-8.8,43.6v2625.7c0,15.1,3,29.7,8.8,43.6,5.6,13.3,13.7,25.3,24,35.6,10.2,10.2,22.2,18.3,35.6,24,13.9,5.9,28.5,8.8,43.6,8.8h3156.1c15.1,0,29.7-3,43.6-8.8,13.3-5.6,25.3-13.7,35.6-24,10.2-10.2,18.3-22.2,24-35.6,5.9-13.9,8.8-28.5,8.8-43.6V120.5c0-15.1-3-29.7-8.8-43.6-5.6-13.3-13.7-25.3-24-35.6-10.2-10.2-22.2-18.3-35.6-24-13.9-5.9-28.5-8.8-43.6-8.8h0Z"/>
          </g>
          <g>
            <line class="cls-1" x1="107.3" y1="107.3" x2="3289.7" y2="107.3"/>
            <line class="cls-1" x1="107.3" y1="2228.9" x2="3289.7" y2="2228.9"/>
            <line class="cls-1" x1="107.3" y1="1698.5" x2="3289.7" y2="1698.5"/>
            <line class="cls-1" x1="107.3" y1="1168.1" x2="3289.7" y2="1168.1"/>
            <line class="cls-1" x1="107.3" y1="637.7" x2="3289.7" y2="637.7"/>
            <line class="cls-1" x1="107.3" y1="2759.3" x2="3289.7" y2="2759.3"/>
            <line class="cls-1" x1="107.3" y1="107.3" x2="107.3" y2="2759.3"/>
            <line class="cls-1" x1="2759.3" y1="107.3" x2="2759.3" y2="2759.3"/>
            <line class="cls-1" x1="2228.9" y1="107.3" x2="2228.9" y2="2759.3"/>
            <line class="cls-1" x1="1698.5" y1="107.3" x2="1698.5" y2="2759.3"/>
            <line class="cls-1" x1="1168.1" y1="107.3" x2="1168.1" y2="2759.3"/>
            <line class="cls-1" x1="637.7" y1="107.3" x2="637.7" y2="2759.3"/>
            <line class="cls-1" x1="3289.7" y1="107.3" x2="3289.7" y2="2759.3"/>
          </g>
        </g>
      </g>
      <image width="1227" height="1080" transform="translate(2807 2295.1) scale(.4)" xlink:href="../../BigAli.png"/>
    </g>
  </g>
</svg>