<?xml version="1.0" encoding="UTF-8"?>
<svg id="Layer_2" data-name="Layer 2" xmlns="http://www.w3.org/2000/svg" viewBox="0 0 271.09 353.48">
  <defs>
    <style>
      .cls-1 {
        fill: #fcfcfc;
        stroke-width: 0px;
      }
    </style>
  </defs>
  <g id="Layer_5" data-name="Layer 5">
    <path class="cls-1" d="M0,137.67C.04,95.08,34.59,60.58,77.19,60.61h77.12s0-49.23,0-49.23c0-2.99,1.17-5.85,3.28-7.97,4.56-4.55,11.95-4.55,16.52,0l93.57,74.62c4.55,4.57,4.55,11.95,0,16.52l-93.64,74.36c-4.56,4.55-11.95,4.55-16.52,0-2.11-2.12-3.29-4.98-3.28-7.97v-48.91s-77.12,0-77.12,0c-14.2,0-25.71,11.51-25.71,25.71v190.04c0,14.2-11.51,25.71-25.71,25.71S0,341.97,0,327.77v-190.04s0-.04,0-.06Z"/>
  </g>
</svg>