<?xml version="1.0" encoding="UTF-8"?>
<svg id="Layer_2" data-name="Layer 2" xmlns="http://www.w3.org/2000/svg" viewBox="0 0 271.09 353.48">
  <defs>
    <style>
      .cls-1 {
        fill: #fcfcfc;
        stroke-width: 0px;
      }
    </style>
  </defs>
  <g id="Layer_5" data-name="Layer 5">
    <path class="cls-1" d="M271.09,137.73v190.04c0,14.2-11.51,25.71-25.71,25.71s-25.71-11.51-25.71-25.71v-190.04c0-14.2-11.51-25.71-25.71-25.71h-77.12v48.91c0,2.99-1.17,5.85-3.28,7.97-4.56,4.55-11.95,4.55-16.52,0L3.41,94.55c-4.55-4.57-4.55-11.95,0-16.52L96.99,3.41c4.56-4.55,11.95-4.55,16.52,0,2.11,2.12,3.29,4.98,3.28,7.97v49.23h77.12c42.59-.04,77.15,34.46,77.19,77.06,0,.02,0,.04,0,.06Z"/>
  </g>
</svg>